<svg xmlns="http://www.w3.org/2000/svg" version="1.1" xmlns:xlink="http://www.w3.org/1999/xlink" xmlns:svgjs="http://svgjs.dev/svgjs" width="2000" height="525" viewBox="0 0 2000 525"><g transform="matrix(1,0,0,1,-1.2121212121212466,-0.06687385176883254)"><svg viewBox="0 0 396 104" data-background-color="#ffffff" preserveAspectRatio="xMidYMid meet" height="525" width="2000" xmlns="http://www.w3.org/2000/svg" xmlns:xlink="http://www.w3.org/1999/xlink"><g id="tight-bounds" transform="matrix(1,0,0,1,0.2400000000000091,0.013247391588492974)"><svg viewBox="0 0 395.52 103.973505216823" height="103.973505216823" width="395.52"><g><svg viewBox="0 0 571.3885144177402 150.20546795268422" height="103.973505216823" width="395.52"><g transform="matrix(1,0,0,1,175.8685144177403,20.759221692447674)"><svg viewBox="0 0 395.52 108.68702456778887" height="108.68702456778887" width="395.52"><g id="textblocktransform"><svg viewBox="0 0 395.52 108.68702456778887" height="108.68702456778887" width="395.52" id="textblock"><g><svg viewBox="0 0 395.52 108.68702456778887" height="108.68702456778887" width="395.52"><g transform="matrix(1,0,0,1,0,0)"><svg width="395.52" viewBox="0.9 -35 164.84 45.3" height="108.68702456778887" data-palette-color="#4b91f1"><path d="M20.9-24.35L25.5-24.35 15.75 1.35Q15.15 2.95 14.25 4.5 13.35 6.05 12.08 7.33 10.8 8.6 9.08 9.4 7.35 10.2 5.1 10.3L5.1 10.3 4.7 7.5Q7.65 6.55 9.25 4.95 10.85 3.35 11.8 1.05L11.8 1.05 13-1.85Q13.4-2.85 13.8-4.05 14.2-5.25 14.55-6.2L14.55-6.2 20.9-24.35ZM0.9-24.35L5.45-24.35 11.9-6.2Q12.15-5.45 12.4-4.73 12.65-4 12.8-3.25L12.8-3.25 13.95-3.25 12.55 0 11.25 0Q10.75 0 10.33-0.3 9.9-0.6 9.75-1.1L9.75-1.1 0.9-24.35ZM40.35-24.95L40.35-24.95Q44.55-24.95 47.07-23.7 49.6-22.45 50.7-19.63 51.8-16.8 51.8-12.15L51.8-12.15Q51.8-7.5 50.7-4.67 49.6-1.85 47.07-0.6 44.55 0.65 40.35 0.65L40.35 0.65Q36.2 0.65 33.67-0.6 31.15-1.85 30.02-4.67 28.9-7.5 28.9-12.15L28.9-12.15Q28.9-16.8 30.02-19.63 31.15-22.45 33.67-23.7 36.2-24.95 40.35-24.95ZM40.35-21.35L40.35-21.35Q37.7-21.35 36.17-20.53 34.65-19.7 34-17.7 33.35-15.7 33.35-12.15L33.35-12.15Q33.35-8.6 34-6.6 34.65-4.6 36.17-3.78 37.7-2.95 40.35-2.95L40.35-2.95Q43-2.95 44.55-3.78 46.1-4.6 46.75-6.6 47.4-8.6 47.4-12.15L47.4-12.15Q47.4-15.7 46.75-17.7 46.1-19.7 44.55-20.53 43-21.35 40.35-21.35ZM70.8-34.95L70.8-34.95Q74.8-34.95 77.25-34.08 79.7-33.2 80.82-31.05 81.95-28.9 81.95-25L81.95-25Q81.95-22.2 81.3-20.33 80.65-18.45 79.27-17.43 77.9-16.4 75.59-16.1L75.59-16.1 75.59-15.85Q76.45-15.65 77.27-15.03 78.09-14.4 78.8-13.38 79.5-12.35 79.84-10.9L79.84-10.9 83.2 0 78.5 0 75.45-10.8Q74.8-12.75 73.7-13.58 72.59-14.4 70.84-14.4L70.84-14.4Q67.8-14.4 65.55-14.43 63.3-14.45 61.8-14.5 60.3-14.55 59.4-14.55L59.4-14.55 59.55-18.2 70.7-18.2Q73.25-18.25 74.72-18.8 76.2-19.35 76.84-20.78 77.5-22.2 77.5-24.75L77.5-24.75Q77.5-27.3 76.84-28.68 76.2-30.05 74.72-30.6 73.25-31.15 70.7-31.15L70.7-31.15Q66.59-31.15 63.62-31.1 60.65-31.05 59.59-31.05L59.59-31.05 58.9-34.5Q60.8-34.7 62.45-34.8 64.09-34.9 66.07-34.93 68.05-34.95 70.8-34.95ZM58.9-34.5L63.25-34.5 63.25 0 58.9 0 58.9-34.5ZM99.39-24.95L99.39-24.95Q103.59-24.95 106.12-23.7 108.64-22.45 109.74-19.63 110.84-16.8 110.84-12.15L110.84-12.15Q110.84-7.5 109.74-4.67 108.64-1.85 106.12-0.6 103.59 0.65 99.39 0.65L99.39 0.65Q95.24 0.65 92.72-0.6 90.19-1.85 89.07-4.67 87.94-7.5 87.94-12.15L87.94-12.15Q87.94-16.8 89.07-19.63 90.19-22.45 92.72-23.7 95.24-24.95 99.39-24.95ZM99.39-21.35L99.39-21.35Q96.74-21.35 95.22-20.53 93.69-19.7 93.04-17.7 92.39-15.7 92.39-12.15L92.39-12.15Q92.39-8.6 93.04-6.6 93.69-4.6 95.22-3.78 96.74-2.95 99.39-2.95L99.39-2.95Q102.04-2.95 103.59-3.78 105.14-4.6 105.79-6.6 106.44-8.6 106.44-12.15L106.44-12.15Q106.44-15.7 105.79-17.7 105.14-19.7 103.59-20.53 102.04-21.35 99.39-21.35ZM128.99-24.95L128.99-24.95Q131.69-24.95 133.57-24.23 135.44-23.5 136.39-21.8 137.34-20.1 137.34-17.15L137.34-17.15 137.34 0 133.99 0 133.34-5.3 133.04-5.85 133.04-17.15Q133.04-19.4 132.02-20.38 130.99-21.35 128.09-21.35L128.09-21.35Q126.19-21.35 123.32-21.15 120.44-20.95 117.64-20.7L117.64-20.7 117.24-23.85Q118.94-24.15 120.97-24.4 122.99-24.65 125.09-24.8 127.19-24.95 128.99-24.95ZM122.89-15L135.34-15 135.29-11.8 123.64-11.75Q121.89-11.7 121.19-10.83 120.49-9.95 120.49-8.4L120.49-8.4 120.49-6.85Q120.49-4.95 121.39-4.08 122.29-3.2 124.29-3.2L124.29-3.2Q125.69-3.2 127.47-3.73 129.24-4.25 131.04-5.35 132.84-6.45 134.34-8.15L134.34-8.15 134.34-5Q133.79-4.3 132.77-3.38 131.74-2.45 130.32-1.58 128.89-0.7 127.17-0.13 125.44 0.45 123.44 0.45L123.44 0.45Q121.29 0.45 119.64-0.33 117.99-1.1 117.07-2.63 116.14-4.15 116.14-6.35L116.14-6.35 116.14-9Q116.14-11.85 117.92-13.43 119.69-15 122.89-15L122.89-15ZM153.04-24.95L153.04-24.95Q155.44-24.95 157.79-24.33 160.14-23.7 162.29-22.4L162.29-22.4 162.04-19.75Q159.69-20.45 157.89-20.85 156.09-21.25 154.04-21.25L154.04-21.25Q151.94-21.25 150.66-20.53 149.39-19.8 148.79-17.85 148.19-15.9 148.19-12.3L148.19-12.3Q148.19-8.7 148.76-6.7 149.34-4.7 150.59-3.9 151.84-3.1 153.79-3.1L153.79-3.1Q155.24-3.1 156.41-3.48 157.59-3.85 158.91-4.7 160.24-5.55 162.04-6.85L162.04-6.85 162.44-3.85Q160.44-2 157.89-0.7 155.34 0.6 152.39 0.6L152.39 0.6Q147.79 0.6 145.81-2.65 143.84-5.9 143.84-12.25L143.84-12.25Q143.84-17 144.84-19.78 145.84-22.55 147.89-23.75 149.94-24.95 153.04-24.95ZM161.49-35L165.74-35 165.74 0 162.44 0 161.94-4.25 161.49-4.6 161.49-21.3 161.79-22.05Q161.59-23.45 161.54-24.75 161.49-26.05 161.49-27.5L161.49-27.5 161.49-35Z" opacity="1" transform="matrix(1,0,0,1,0,0)" fill="#000000" class="wordmark-text-0" data-fill-palette-color="primary" id="text-0"></path></svg></g></svg></g></svg></g></svg></g><g><svg viewBox="0 0 150.21011640587497 150.20546795268422" height="150.20546795268422" width="150.21011640587497"><g><svg xmlns="http://www.w3.org/2000/svg" xmlns:xlink="http://www.w3.org/1999/xlink" version="1.1" x="0" y="0" viewBox="1.058 1.061 96.942 96.939" enable-background="new 0 0 100 100" xml:space="preserve" height="150.20546795268422" width="150.21011640587497" class="icon-icon-0" data-fill-palette-color="accent" id="icon-0"><g fill="#4b91f1" data-fill-palette-color="accent"><path d="M98 97.998h-2.454C95.546 45.9 53.16 3.514 1.063 3.514V1.061C54.514 1.061 98 44.549 98 97.998z" fill="#000000" data-fill-palette-color="accent"></path><path d="M42.588 97.998h-2.454c0-21.543-17.528-39.07-39.071-39.07v-2.453C23.959 56.475 42.588 75.101 42.588 97.998z" fill="#000000" data-fill-palette-color="accent"></path><path d="M1.063 52.032V7.956c49.649 0 90.043 40.394 90.043 90.042H47.028C47.028 72.652 26.407 52.032 1.063 52.032zM1.058 28.809v2.452c36.801 0 66.74 29.941 66.74 66.739h2.453C70.251 59.848 39.21 28.809 1.058 28.809z" fill="#000000" data-fill-palette-color="accent"></path></g></svg></g></svg></g></svg></g><defs></defs></svg><rect width="395.52" height="103.973505216823" fill="none" stroke="none" visibility="hidden"></rect></g></svg></g></svg>